<?xml version="1.0" encoding="UTF-8" standalone="no"?>
<svg
   xmlns:dc="http://purl.org/dc/elements/1.1/"
   xmlns:cc="http://creativecommons.org/ns#"
   xmlns:rdf="http://www.w3.org/1999/02/22-rdf-syntax-ns#"
   xmlns:svg="http://www.w3.org/2000/svg"
   xmlns="http://www.w3.org/2000/svg"
   xmlns:sodipodi="http://sodipodi.sourceforge.net/DTD/sodipodi-0.dtd"
   xmlns:inkscape="http://www.inkscape.org/namespaces/inkscape"
   sodipodi:docname="angler.svg"
   inkscape:version="1.0 (4035a4fb49, 2020-05-01)"
   id="svg8"
   version="1.1"
   viewBox="0 0 34.07843 21.985742"
   height="21.985743mm"
   width="34.07843mm">
  <defs
     id="defs2">
    <marker
       inkscape:isstock="true"
       style="overflow:visible"
       id="marker1353"
       refX="0"
       refY="0"
       orient="auto"
       inkscape:stockid="Arrow2Send">
      <path
         transform="matrix(-0.3,0,0,-0.3,0.69,0)"
         d="M 8.7185878,4.0337352 -2.2072895,0.01601326 8.7185884,-4.0017078 c -1.7454984,2.3720609 -1.7354408,5.6174519 -6e-7,8.035443 z"
         style="fill:#000000;fill-opacity:1;fill-rule:evenodd;stroke:#000000;stroke-width:0.625;stroke-linejoin:round;stroke-opacity:1"
         id="path1351" />
    </marker>
    <marker
       inkscape:collect="always"
       inkscape:stockid="Arrow2Send"
       orient="auto"
       refY="0"
       refX="0"
       id="marker1283"
       style="overflow:visible"
       inkscape:isstock="true">
      <path
         id="path1281"
         style="fill:#000000;fill-opacity:1;fill-rule:evenodd;stroke:#000000;stroke-width:0.625;stroke-linejoin:round;stroke-opacity:1"
         d="M 8.7185878,4.0337352 -2.2072895,0.01601326 8.7185884,-4.0017078 c -1.7454984,2.3720609 -1.7354408,5.6174519 -6e-7,8.035443 z"
         transform="matrix(-0.3,0,0,-0.3,0.69,0)" />
    </marker>
    <marker
       inkscape:collect="always"
       inkscape:isstock="true"
       style="overflow:visible"
       id="Arrow2Send"
       refX="0"
       refY="0"
       orient="auto"
       inkscape:stockid="Arrow2Send">
      <path
         transform="matrix(-0.3,0,0,-0.3,0.69,0)"
         d="M 8.7185878,4.0337352 -2.2072895,0.01601326 8.7185884,-4.0017078 c -1.7454984,2.3720609 -1.7354408,5.6174519 -6e-7,8.035443 z"
         style="fill:#000000;fill-opacity:1;fill-rule:evenodd;stroke:#000000;stroke-width:0.625;stroke-linejoin:round;stroke-opacity:1"
         id="path910" />
    </marker>
    <marker
       inkscape:isstock="true"
       style="overflow:visible"
       id="Arrow2Lend"
       refX="0"
       refY="0"
       orient="auto"
       inkscape:stockid="Arrow2Lend">
      <path
         transform="matrix(-1.1,0,0,-1.1,-1.1,0)"
         d="M 8.7185878,4.0337352 -2.2072895,0.01601326 8.7185884,-4.0017078 c -1.7454984,2.3720609 -1.7354408,5.6174519 -6e-7,8.035443 z"
         style="fill:#000000;fill-opacity:1;fill-rule:evenodd;stroke:#000000;stroke-width:0.625;stroke-linejoin:round;stroke-opacity:1"
         id="path898" />
    </marker>
    <marker
       inkscape:isstock="true"
       style="overflow:visible"
       id="Arrow2Lstart"
       refX="0"
       refY="0"
       orient="auto"
       inkscape:stockid="Arrow2Lstart">
      <path
         transform="matrix(1.1,0,0,1.1,1.1,0)"
         d="M 8.7185878,4.0337352 -2.2072895,0.01601326 8.7185884,-4.0017078 c -1.7454984,2.3720609 -1.7354408,5.6174519 -6e-7,8.035443 z"
         style="fill:#000000;fill-opacity:1;fill-rule:evenodd;stroke:#000000;stroke-width:0.625;stroke-linejoin:round;stroke-opacity:1"
         id="path895" />
    </marker>
    <marker
       inkscape:isstock="true"
       style="overflow:visible"
       id="Arrow1Lstart"
       refX="0"
       refY="0"
       orient="auto"
       inkscape:stockid="Arrow1Lstart">
      <path
         transform="matrix(0.8,0,0,0.8,10,0)"
         style="fill:#000000;fill-opacity:1;fill-rule:evenodd;stroke:#000000;stroke-width:1pt;stroke-opacity:1"
         d="M 0,0 5,-5 -12.5,0 5,5 Z"
         id="path877" />
    </marker>
  </defs>
  <sodipodi:namedview
     inkscape:window-maximized="1"
     inkscape:window-y="24"
     inkscape:window-x="1922"
     inkscape:window-height="1054"
     inkscape:window-width="1916"
     inkscape:snap-global="false"
     showgrid="true"
     inkscape:document-rotation="0"
     inkscape:current-layer="layer1"
     inkscape:document-units="mm"
     inkscape:cy="66.24569"
     inkscape:cx="84.390902"
     inkscape:zoom="2.8"
     inkscape:pageshadow="2"
     inkscape:pageopacity="0.0"
     borderopacity="1.0"
     bordercolor="#666666"
     pagecolor="#ffffff"
     id="base">
    <inkscape:grid
       originy="-32.319559"
       originx="-40.945494"
       id="grid10"
       type="xygrid" />
  </sodipodi:namedview>
  <metadata
     id="metadata5">
    <rdf:RDF>
      <cc:Work
         rdf:about="">
        <dc:format>image/svg+xml</dc:format>
        <dc:type
           rdf:resource="http://purl.org/dc/dcmitype/StillImage" />
        <dc:title></dc:title>
      </cc:Work>
    </rdf:RDF>
  </metadata>
  <g
     transform="translate(-40.945495,-32.319558)"
     id="layer1"
     inkscape:groupmode="layer"
     inkscape:label="Layer 1">
    <path
       sodipodi:nodetypes="scccccczzzzzcccccccccccccccss"
       d="m 59.531249,35.52976 c -0.571218,-0.0779 0.335075,-1.001205 0.897787,-1.194115 0.718063,-0.480278 1.655326,-0.185634 2.468413,-0.193591 0.717575,0.06169 0.408712,0.53431 -0.431744,0.926461 0.122512,0.481547 0.647384,0.819257 0.92459,1.222345 0.355928,0.574349 1.125046,0.986185 1.038388,1.734608 0.186973,3.071792 0.418079,5.527738 0.394236,8.607338 0,0 2.23013,0.287175 5.008184,0.448846 2.778054,0.161671 4.813001,0.172024 4.93326,2.149739 0.120259,1.977716 0.05727,1.606629 0.108339,2.579999 0.05107,0.973369 0.251229,1.150164 -3.954911,1.530491 -4.20614,0.380327 -16.899158,1.71219 -21.544645,-0.09449 -4.645487,-1.80668 -6.189359,-5.622395 -6.189359,-5.622395 -0.451287,-0.66534 -0.133086,-0.825463 0.569972,-0.732904 L 60.665183,46.58556 c -0.334076,-1.962781 -0.69691,-3.986305 -0.611721,-5.923595 0.0523,-1.237572 -0.311104,-1.252118 -1.19516,-1.195722 -0.582103,0.0159 -1.138593,0.0015 -1.091656,-0.726694 -0.02724,-0.685974 -0.93644,-0.01115 -1.321492,-0.244377 -0.341274,-0.345509 -0.688802,-0.43343 -0.315689,-0.98104 0.699921,-0.368219 0.08582,-0.795932 -0.280138,-1.105683 -1.025579,-0.713133 -2.132826,-1.715045 -3.205241,-2.347937 -1.148673,-0.472815 -2.930349,-1.210608 -2.743759,-1.138478 0.186589,0.07213 2.679955,0.867261 3.801093,1.755376 1.074592,0.621469 1.839425,1.238489 3.172185,2.18781 0.958634,0.780815 1.141195,0.25353 2.629802,0.267006 1.488607,0.01347 1.443099,-1.005019 1.093676,-1.229626 -0.291204,-0.273353 -0.321157,-0.271279 -0.698338,-0.32272 z"
       style="fill:#000000;fill-opacity:1;stroke:#000000;stroke-width:0.264583px;stroke-linecap:butt;stroke-linejoin:miter;stroke-opacity:1"
       id="path851" />
    <ellipse
       ry="6.6645474"
       rx="6.5295091"
       cy="39.134106"
       cx="47.625004"
       id="path869"
       style="fill:none;fill-opacity:1;stroke:#000000;stroke-width:0.3;stroke-miterlimit:4;stroke-dasharray:none;stroke-opacity:1" />
    <ellipse
       ry="1.7481397"
       rx="6.4964657"
       cy="39.569382"
       cx="47.648624"
       id="path871"
       style="fill:none;fill-opacity:1;stroke:#000000;stroke-width:0.3;stroke-miterlimit:4;stroke-dasharray:0.3, 0.3;stroke-dashoffset:0;stroke-opacity:1" />
    <circle
       r="0.40455264"
       cy="39.663876"
       cx="47.624996"
       id="path873"
       style="fill:#000000;fill-opacity:1;stroke:none;stroke-width:0.265;stroke-miterlimit:4;stroke-dasharray:none;stroke-dashoffset:0;stroke-opacity:1" />
    <path
       sodipodi:nodetypes="cc"
       id="path875"
       d="M 47.624999,39.663875 V 33.018259"
       style="fill:none;stroke:#000000;stroke-width:0.3;stroke-linecap:butt;stroke-linejoin:miter;stroke-miterlimit:4;stroke-dasharray:none;stroke-opacity:1;marker-end:url(#Arrow2Send)" />
    <path
       sodipodi:nodetypes="cc"
       style="fill:none;stroke:#000000;stroke-width:0.3;stroke-linecap:butt;stroke-linejoin:miter;stroke-miterlimit:4;stroke-dasharray:none;stroke-opacity:1;marker-end:url(#marker1283)"
       d="m 47.624999,39.663875 -1.663431,1.26994"
       id="path1279" />
    <path
       id="path1349"
       d="m 47.624999,39.663875 6.000372,0.02363"
       style="fill:none;stroke:#000000;stroke-width:0.3;stroke-linecap:butt;stroke-linejoin:miter;stroke-miterlimit:4;stroke-dasharray:none;stroke-opacity:1;marker-end:url(#marker1353)"
       sodipodi:nodetypes="cc" />
  </g>
</svg>
